<?xml version="1.0" encoding="utf-8"?>
<!-- Generator: Adobe Illustrator 24.2.3, SVG Export Plug-In . SVG Version: 6.00 Build 0)  -->
<svg version="1.1" id="Layer_1" xmlns="http://www.w3.org/2000/svg" xmlns:xlink="http://www.w3.org/1999/xlink" x="0px" y="0px"
	 viewBox="0 0 120 19" style="enable-background:new 0 0 120 19;" xml:space="preserve">
<g>
	<path d="M11.98,17.83h-0.93v-7.59H3.2V9.39h7.85V8.46c0-0.65-0.02-1.2-0.05-1.65c-0.03-0.45-0.09-0.85-0.18-1.19
		c-0.09-0.34-0.21-0.64-0.36-0.89c-0.15-0.25-0.35-0.52-0.58-0.79C9.07,3.05,8.04,2.6,6.78,2.6c-0.92,0-1.74,0.23-2.47,0.69
		C3.59,3.75,3.08,4.37,2.78,5.14C2.6,5.59,2.48,6.03,2.42,6.47c-0.06,0.44-0.1,1-0.1,1.66v9.7H1.4V8.23c0-1.27,0.14-2.3,0.42-3.1
		c0.28-0.8,0.73-1.49,1.36-2.08C4.16,2.15,5.33,1.7,6.71,1.7c1.09,0,2.07,0.28,2.94,0.84c0.87,0.56,1.49,1.32,1.85,2.27
		c0.09,0.27,0.17,0.51,0.24,0.72c0.06,0.21,0.11,0.45,0.15,0.7c0.04,0.25,0.06,0.55,0.07,0.88c0.01,0.33,0.01,0.74,0.01,1.23V17.83z
		"/>
	<path d="M23.13,17.83H22.2v-5.62c0-0.81-0.08-1.46-0.24-1.96c-0.16-0.5-0.43-0.94-0.8-1.32c-0.32-0.32-0.68-0.56-1.1-0.72
		c-0.42-0.17-0.85-0.25-1.29-0.25c-0.66,0-1.27,0.18-1.83,0.53c-0.56,0.36-0.97,0.82-1.22,1.39c-0.14,0.32-0.25,0.67-0.32,1.07
		c-0.07,0.4-0.11,0.87-0.11,1.42v5.46h-0.93v-6.05c0-0.68,0.11-1.3,0.33-1.87c0.22-0.57,0.53-1.06,0.91-1.47
		c0.39-0.41,0.85-0.74,1.39-0.97c0.54-0.24,1.12-0.36,1.76-0.36c0.63,0,1.22,0.11,1.76,0.34c0.54,0.23,1,0.55,1.39,0.96
		c0.39,0.41,0.69,0.9,0.9,1.46c0.21,0.56,0.32,1.18,0.32,1.86V17.83z"/>
	<path d="M35.51,17.83h-0.93v-4.58c0-0.79-0.11-1.51-0.32-2.16c-0.21-0.65-0.52-1.21-0.92-1.67c-0.4-0.47-0.88-0.83-1.44-1.08
		c-0.56-0.25-1.19-0.38-1.87-0.38c-0.62,0-1.2,0.12-1.74,0.37c-0.54,0.25-1.01,0.58-1.42,1c-0.4,0.42-0.73,0.91-0.96,1.46
		c-0.24,0.55-0.36,1.15-0.36,1.78c0,0.63,0.12,1.23,0.36,1.78c0.24,0.55,0.56,1.04,0.96,1.46c0.4,0.42,0.88,0.75,1.43,0.98
		c0.55,0.24,1.13,0.36,1.75,0.36c0.71,0,1.37-0.14,1.96-0.41c0.59-0.28,1.19-0.72,1.77-1.32v1.09c-0.59,0.54-1.17,0.92-1.74,1.15
		c-0.58,0.23-1.25,0.34-2,0.34c-0.76,0-1.47-0.14-2.12-0.42c-0.66-0.28-1.23-0.66-1.72-1.15c-0.49-0.49-0.87-1.07-1.15-1.73
		c-0.28-0.66-0.41-1.38-0.41-2.13c0-0.74,0.14-1.45,0.43-2.11c0.28-0.66,0.68-1.25,1.17-1.74c0.5-0.5,1.08-0.89,1.73-1.17
		c0.66-0.28,1.36-0.43,2.1-0.43c0.77,0,1.49,0.15,2.15,0.44c0.66,0.29,1.23,0.7,1.72,1.21c0.49,0.51,0.87,1.12,1.15,1.83
		c0.28,0.7,0.42,1.46,0.42,2.27V17.83z"/>
	<path d="M45.04,17.83h-0.93V2.01h2.87c1.04,0,1.94,0.09,2.68,0.28c0.74,0.19,1.47,0.51,2.18,0.95c1.15,0.73,2.06,1.69,2.72,2.89
		c0.66,1.2,0.98,2.51,0.98,3.91c0,1.3-0.3,2.53-0.91,3.69c-0.61,1.16-1.44,2.11-2.48,2.83c-0.65,0.44-1.33,0.76-2.04,0.96
		c-0.71,0.2-1.56,0.3-2.54,0.3h-1.76v-0.85h1.42c0.47,0,0.89-0.01,1.26-0.04c0.36-0.02,0.7-0.07,1-0.14
		c0.3-0.07,0.59-0.17,0.87-0.29c0.28-0.12,0.57-0.27,0.87-0.46c0.62-0.36,1.17-0.83,1.66-1.38c1.11-1.29,1.66-2.81,1.66-4.57
		c0-1.27-0.29-2.44-0.86-3.5c-0.57-1.06-1.36-1.93-2.38-2.59C50.67,3.6,50,3.3,49.31,3.13c-0.69-0.17-1.54-0.26-2.56-0.26h-1.71
		V17.83z"/>
	<path d="M67.2,17.83h-0.93v-4.58c0-0.79-0.11-1.51-0.32-2.16c-0.21-0.65-0.52-1.21-0.92-1.67c-0.4-0.47-0.88-0.83-1.44-1.08
		c-0.56-0.25-1.19-0.38-1.87-0.38c-0.62,0-1.2,0.12-1.74,0.37c-0.54,0.25-1.01,0.58-1.42,1c-0.4,0.42-0.73,0.91-0.96,1.46
		c-0.24,0.55-0.36,1.15-0.36,1.78c0,0.63,0.12,1.23,0.36,1.78c0.24,0.55,0.56,1.04,0.96,1.46c0.4,0.42,0.88,0.75,1.43,0.98
		c0.55,0.24,1.13,0.36,1.75,0.36c0.71,0,1.37-0.14,1.96-0.41c0.59-0.28,1.19-0.72,1.77-1.32v1.09c-0.59,0.54-1.17,0.92-1.74,1.15
		c-0.58,0.23-1.25,0.34-2,0.34c-0.76,0-1.47-0.14-2.12-0.42c-0.66-0.28-1.23-0.66-1.72-1.15c-0.49-0.49-0.87-1.07-1.15-1.73
		c-0.28-0.66-0.41-1.38-0.41-2.13c0-0.74,0.14-1.45,0.43-2.11c0.28-0.66,0.68-1.25,1.17-1.74c0.5-0.5,1.08-0.89,1.73-1.17
		c0.66-0.28,1.36-0.43,2.1-0.43c0.77,0,1.49,0.15,2.15,0.44c0.66,0.29,1.23,0.7,1.72,1.21c0.49,0.51,0.87,1.12,1.15,1.83
		c0.28,0.7,0.42,1.46,0.42,2.27V17.83z M58.02,5.81l3.68-3.39l3.87,3.39h-1.11l-2.75-2.4l-2.56,2.4H58.02z"/>
	<path d="M83.81,17.83h-0.93v-6.62c0-1-0.26-1.79-0.79-2.37c-0.53-0.58-1.23-0.88-2.11-0.88c-0.54,0-1.03,0.14-1.48,0.42
		c-0.45,0.28-0.8,0.65-1.05,1.13c-0.14,0.27-0.24,0.55-0.3,0.84c-0.06,0.29-0.08,0.73-0.08,1.32v6.17h-0.93v-6.36
		c0-0.7-0.07-1.24-0.2-1.62c-0.13-0.39-0.38-0.76-0.74-1.1c-0.55-0.52-1.21-0.78-1.98-0.78c-0.55,0-1.06,0.14-1.54,0.43
		c-0.47,0.28-0.82,0.66-1.04,1.11c-0.06,0.13-0.11,0.25-0.15,0.38c-0.04,0.13-0.07,0.27-0.09,0.41c-0.02,0.15-0.04,0.33-0.05,0.53
		c-0.01,0.21-0.01,0.45-0.01,0.74v6.26h-0.93v-6.43c0-0.89,0.1-1.59,0.3-2.11c0.2-0.52,0.54-0.98,1.03-1.38
		c0.68-0.54,1.49-0.81,2.42-0.81c0.81,0,1.48,0.18,2.03,0.53c0.55,0.36,1.02,0.92,1.41,1.7c0.43-0.79,0.91-1.36,1.44-1.71
		c0.53-0.35,1.18-0.52,1.94-0.52c0.57,0,1.09,0.1,1.57,0.3c0.48,0.2,0.88,0.47,1.21,0.83c0.33,0.36,0.59,0.78,0.77,1.28
		c0.18,0.5,0.27,1.06,0.27,1.67V17.83z"/>
	<path d="M96.17,17.83h-0.93v-4.58c0-0.79-0.11-1.51-0.32-2.16C94.7,10.45,94.4,9.89,94,9.42c-0.4-0.47-0.88-0.83-1.44-1.08
		C92,8.09,91.38,7.97,90.7,7.97c-0.62,0-1.2,0.12-1.74,0.37c-0.54,0.25-1.01,0.58-1.42,1c-0.4,0.42-0.73,0.91-0.96,1.46
		c-0.24,0.55-0.36,1.15-0.36,1.78c0,0.63,0.12,1.23,0.36,1.78c0.24,0.55,0.56,1.04,0.96,1.46c0.4,0.42,0.88,0.75,1.43,0.98
		c0.55,0.24,1.13,0.36,1.75,0.36c0.71,0,1.37-0.14,1.96-0.41c0.59-0.28,1.19-0.72,1.77-1.32v1.09c-0.59,0.54-1.17,0.92-1.74,1.15
		c-0.58,0.23-1.25,0.34-2,0.34c-0.76,0-1.47-0.14-2.12-0.42c-0.66-0.28-1.23-0.66-1.72-1.15c-0.49-0.49-0.87-1.07-1.15-1.73
		c-0.28-0.66-0.42-1.38-0.42-2.13c0-0.74,0.14-1.45,0.43-2.11c0.28-0.66,0.68-1.25,1.17-1.74c0.5-0.5,1.08-0.89,1.73-1.17
		c0.66-0.28,1.36-0.43,2.1-0.43c0.77,0,1.49,0.15,2.15,0.44c0.66,0.29,1.23,0.7,1.72,1.21c0.49,0.51,0.87,1.12,1.15,1.83
		c0.28,0.7,0.42,1.46,0.42,2.27V17.83z"/>
	<path d="M98.32,17.83v-0.85h4.71c1.68,0,2.52-0.61,2.52-1.82c0-0.52-0.17-0.94-0.51-1.27c-0.34-0.32-0.9-0.59-1.68-0.79l-1.48-0.4
		c-0.3-0.08-0.55-0.14-0.75-0.19c-0.2-0.05-0.34-0.09-0.42-0.12c-0.22-0.06-0.43-0.13-0.62-0.21c-0.19-0.08-0.37-0.17-0.55-0.26
		c-0.86-0.46-1.29-1.17-1.29-2.13c0-0.82,0.28-1.44,0.85-1.87c0.57-0.43,1.41-0.64,2.51-0.64h4.06v0.85h-3.72
		c-1,0-1.71,0.13-2.14,0.38S99.2,9.19,99.2,9.79c0,0.27,0.04,0.5,0.13,0.7c0.09,0.2,0.24,0.37,0.46,0.53
		c0.22,0.16,0.52,0.31,0.88,0.45c0.36,0.14,0.83,0.28,1.4,0.43l1.5,0.38c1.02,0.27,1.75,0.62,2.21,1.05
		c0.46,0.43,0.69,1.02,0.69,1.76c0,0.54-0.15,1.03-0.44,1.49c-0.29,0.46-0.67,0.78-1.13,0.97c-0.27,0.11-0.56,0.19-0.88,0.23
		c-0.32,0.04-0.74,0.06-1.26,0.06H98.32z"/>
	<path d="M107.91,12.54c0-0.74,0.14-1.44,0.43-2.1c0.28-0.66,0.67-1.23,1.16-1.73c0.49-0.5,1.06-0.89,1.71-1.17
		c0.65-0.28,1.34-0.43,2.09-0.43c0.74,0,1.45,0.14,2.11,0.43c0.66,0.28,1.24,0.68,1.73,1.17c0.49,0.5,0.88,1.08,1.16,1.73
		c0.28,0.66,0.43,1.36,0.43,2.12c0,0.76-0.14,1.47-0.43,2.12c-0.28,0.66-0.67,1.23-1.15,1.72c-0.48,0.49-1.05,0.88-1.71,1.16
		c-0.66,0.28-1.36,0.43-2.1,0.43c-0.76,0-1.47-0.14-2.14-0.43c-0.66-0.28-1.24-0.67-1.72-1.16c-0.48-0.49-0.87-1.07-1.15-1.73
		C108.05,14.01,107.91,13.3,107.91,12.54z M117.8,12.59c0-0.63-0.12-1.23-0.36-1.8c-0.24-0.57-0.56-1.06-0.97-1.47
		c-0.41-0.41-0.88-0.74-1.43-0.98c-0.55-0.25-1.13-0.37-1.75-0.37c-0.6,0-1.18,0.12-1.72,0.37c-0.54,0.25-1.01,0.57-1.42,0.98
		c-0.41,0.41-0.73,0.9-0.97,1.46c-0.24,0.56-0.36,1.15-0.36,1.77c0,0.63,0.12,1.23,0.36,1.78c0.24,0.55,0.56,1.04,0.97,1.46
		c0.41,0.42,0.89,0.75,1.44,1c0.56,0.25,1.14,0.37,1.77,0.37c0.62,0,1.2-0.12,1.73-0.36c0.53-0.24,1-0.56,1.41-0.97
		c0.41-0.41,0.72-0.89,0.95-1.45C117.68,13.82,117.8,13.22,117.8,12.59z"/>
</g>
</svg>
