<?xml version="1.0" encoding="utf-8"?>
<!-- Generator: Adobe Illustrator 24.2.3, SVG Export Plug-In . SVG Version: 6.00 Build 0)  -->
<svg version="1.1" id="Layer_1" xmlns="http://www.w3.org/2000/svg" xmlns:xlink="http://www.w3.org/1999/xlink" x="0px" y="0px"
	 viewBox="0 0 800 1000" style="enable-background:new 0 0 800 1000;" xml:space="preserve">
<style type="text/css">
	.st0{fill:#010101;}
</style>
<g>
	<path class="st0" d="M397,581.8c-27.6,0-55.2,0-82.7,0c-7.6,0-12.5-4-13.2-10.5c-0.7-6.5,3.6-12.1,10.1-13c0.8-0.1,1.7-0.1,2.5-0.1
		c55.6,0,111.3,0,166.9,0c3.8,0,7.1,1,9.8,3.8c6.3,6.8,3,17.4-6,19.4c-1.7,0.4-3.6,0.4-5.3,0.4C451.7,581.8,424.3,581.8,397,581.8z"
		/>
	<path class="st0" d="M397,518.3c-27.6,0-55.2,0-82.7,0c-7.6,0-12.5-4-13.2-10.5c-0.7-6.5,3.6-12.1,10.1-13c0.8-0.1,1.7-0.1,2.5-0.1
		c55.6,0,111.3,0,166.9,0c3.8,0,7.1,1,9.8,3.8c6.3,6.8,3,17.4-6,19.4c-1.7,0.4-3.6,0.4-5.3,0.4C451.7,518.3,424.3,518.3,397,518.3z"
		/>
	<path class="st0" d="M397,454.8c-27.6,0-55.2,0-82.7,0c-7.6,0-12.5-4-13.2-10.5c-0.7-6.5,3.6-12.1,10.1-13c0.8-0.1,1.7-0.1,2.5-0.1
		c55.6,0,111.3,0,166.9,0c3.8,0,7.1,1,9.8,3.8c6.3,6.8,3,17.4-6,19.4c-1.7,0.4-3.6,0.4-5.3,0.4C451.7,454.8,424.3,454.8,397,454.8z"
		/>
</g>
</svg>
