<?xml version="1.0" encoding="utf-8"?>
<!-- Generator: Adobe Illustrator 24.2.3, SVG Export Plug-In . SVG Version: 6.00 Build 0)  -->
<svg version="1.1" id="Layer_1" xmlns="http://www.w3.org/2000/svg" xmlns:xlink="http://www.w3.org/1999/xlink" x="0px" y="0px"
	 viewBox="0 0 512 512" style="enable-background:new 0 0 512 512;" xml:space="preserve">
<g>
	<path d="M226.9,382h-14.4V263.4H89.9v-13.3h122.6v-14.5c0-10.2-0.2-18.8-0.7-25.8s-1.4-13.3-2.8-18.6s-3.2-10-5.6-13.9
		c-2.4-4-5.4-8.1-9.1-12.3c-12.7-13.9-28.8-20.8-48.4-20.8c-14.4,0-27.3,3.6-38.5,10.7c-11.3,7.2-19.3,16.8-24,28.9
		c-2.7,6.9-4.6,13.8-5.6,20.7c-1,6.9-1.5,15.6-1.5,25.9V382H61.7v-150c0-19.8,2.2-35.9,6.5-48.3c4.3-12.5,11.4-23.3,21.3-32.4
		c15.3-14.1,33.7-21.1,55.2-21.1c17,0,32.4,4.4,45.9,13.2c13.6,8.8,23.2,20.6,28.9,35.4c1.5,4.2,2.7,8,3.7,11.3
		c1,3.3,1.8,7,2.4,10.9c0.6,4,1,8.5,1.1,13.7c0.1,5.2,0.2,11.6,0.2,19.3V382z"/>
	<path d="M286.2,382h-14.4V134.9h44.8c16.3,0,30.2,1.5,41.9,4.4c11.6,3,23,7.9,34.1,14.8c18,11.4,32.2,26.4,42.4,45.2
		c10.2,18.8,15.4,39.1,15.4,61.1c0,20.3-4.8,39.5-14.3,57.6c-9.5,18.2-22.4,32.9-38.7,44.3c-10.1,6.9-20.7,11.9-31.9,15
		c-11.1,3.1-24.3,4.6-39.6,4.6h-27.4v-13.3h22.2c7.4,0,13.9-0.2,19.6-0.6c5.7-0.4,10.9-1.1,15.6-2.2c4.7-1.1,9.2-2.6,13.5-4.5
		c4.3-1.9,8.8-4.3,13.5-7.2c9.6-5.7,18.3-12.9,25.9-21.6c17.3-20.1,25.9-43.9,25.9-71.4c0-19.8-4.5-38-13.4-54.6
		c-8.9-16.6-21.3-30.1-37.1-40.5c-10.2-6.4-20.6-11-31.4-13.7c-10.8-2.7-24.1-4.1-39.9-4.1h-26.7V382z"/>
</g>
</svg>
